Inverse Dynamics Generalized Forces
version=1
nRows=15
nColumns=34
inDegrees=no
endheader 
time	pelvis_tilt_moment	pelvis_list_moment	pelvis_rotation_moment	pelvis_tx_force	pelvis_ty_force	pelvis_tz_force	hip_flexion_l_moment	hip_adduction_l_moment	hip_rotation_l_moment	hip_flexion_r_moment	hip_adduction_r_moment	hip_rotation_r_moment	knee_angle_l_moment	knee_angle_r_moment	ankle_angle_l_moment	ankle_angle_r_moment	subtalar_angle_l_moment	subtalar_angle_r_moment	mtp_angle_l_moment	mtp_angle_r_moment	lumbar_extension_moment	lumbar_bending_moment	lumbar_rotation_moment	arm_flex_l_moment	arm_add_l_moment	arm_rot_l_moment	arm_flex_r_moment	arm_add_r_moment	arm_rot_r_moment	elbow_flex_l_moment	elbow_flex_r_moment	pro_sup_l_moment	pro_sup_r_moment	
          0.74428302	         -0.00000011	          0.00000213	          0.00000055	          0.00000005	          0.00000540	         -0.00000191	        -13.59715832	        -42.57930825	          5.25908322	         12.89284227	          3.09932418	         -0.49768938	        -15.20439854	         -6.16121275	        -27.37986893	          1.58574824	         13.24318987	         -0.37546158	          4.32883926	         -0.10294414	          0.03773054	          7.85263879	         -0.05999133	         -2.78836401	         -0.60619450	         -0.03423722	         -0.20299753	         -2.56629149	         -0.36076752	         -0.46060950	          0.61031487	          0.00863425	         -0.03036621	
          0.76443396	          0.00000004	          0.00000118	          0.00000033	          0.00000031	          0.00000273	         -0.00000091	         -4.52121368	        -37.87460261	          4.59639664	          7.80040730	          2.87681265	         -0.25347595	        -12.71390635	         -5.85117739	        -28.54607501	          1.32656207	         13.06104301	         -0.33367855	          4.56046033	         -0.09090195	         -1.75477271	          5.55859877	          1.96187064	         -1.94913782	         -0.35872829	         -0.00780886	          0.49288077	         -2.17726257	         -0.30504385	         -0.19433077	          0.76144471	          0.00575689	         -0.03019865	
          0.78458491	         -0.00000007	          0.00000067	          0.00000021	         -0.00000019	          0.00000422	         -0.00000034	          2.64097731	        -32.05807852	          3.57572246	          2.66458379	          3.70376158	         -0.53957091	         -9.79071343	         -4.57510141	        -29.71552283	          1.04596604	         12.85254052	         -0.23613926	          4.88597642	         -0.07800725	         -2.51946516	          3.77679470	          3.78261025	         -0.87430958	         -0.25756545	          0.00099064	          0.79590067	         -1.73970592	         -0.23016725	          0.18463253	          0.80046678	         -0.00046760	         -0.02627820	
          0.80473585	         -0.00000042	          0.00000019	          0.00000013	         -0.00000070	          0.00000662	          0.00000024	          7.86540255	        -26.41347860	          2.32034098	         -1.63268862	          4.62160689	         -1.11712219	         -7.01440981	         -2.64200206	        -30.23871727	          0.81683953	         12.26402431	         -0.12839680	          5.19452680	         -0.07373119	         -2.87580907	          2.35052793	          4.80362836	          0.42512162	         -0.26688490	         -0.00634552	          0.58165812	         -1.27749055	         -0.14355208	          0.65452123	          0.67621640	         -0.00896655	         -0.01809559	
          0.82488679	         -0.00000071	         -0.00000001	          0.00000011	         -0.00000085	          0.00000909	          0.00000051	         10.20508709	        -23.03407283	          1.05107274	         -3.61790628	          4.12252078	         -1.38513841	         -4.30470491	         -0.96171523	        -29.85373979	          0.82064269	         11.12908793	         -0.11242978	          5.37741365	         -0.12093996	         -3.12910977	          1.12931591	          4.71286551	          1.73770240	         -0.34025053	         -0.02653474	         -0.11967956	         -0.83000227	         -0.05660978	          1.12556836	          0.39207113	         -0.01777216	         -0.00645778	
          0.84503774	         -0.00000010	         -0.00000048	          0.00000001	         -0.00000003	          0.00001034	          0.00000111	          5.79337015	        -23.48281955	         -0.26013560	          0.77120888	          1.02076651	         -0.94174986	          0.49861352	         -2.22507478	        -29.44258489	          1.78022253	          9.59373215	         -0.44147608	          5.46974807	         -0.45541824	         -3.27783379	          0.21704323	          3.52540780	          2.72447669	         -0.46062129	         -0.05927959	         -1.14074672	         -0.47329915	          0.01531624	          1.46944329	          0.00116483	         -0.02497195	          0.00645712	
          0.86518868	          0.00000040	         -0.00000112	         -0.00000015	          0.00000046	          0.00001000	          0.00000184	         -4.77137754	        -27.97527133	         -1.73637836	         10.63106327	         -4.49409098	          0.21663840	          7.70635673	         -6.24100463	        -30.05117989	          3.25716475	          7.94644417	         -0.98754899	          5.60096755	         -0.95769978	         -2.90494532	         -0.25487205	          1.83331207	          3.00860399	         -0.62062777	         -0.10200191	         -2.09556417	         -0.30276091	          0.05357817	          1.55381763	         -0.36659598	         -0.02882133	          0.01665635	
          0.88533962	          0.00000065	         -0.00000167	         -0.00000024	          0.00000095	          0.00001222	          0.00000255	         -8.38566745	        -33.65458780	         -3.01101988	         12.27992827	         -8.76220603	          1.38056121	         10.87565745	         -4.54089342	        -31.43508571	          2.75722769	          6.73585462	         -0.94683523	          5.81440074	         -0.78559828	         -1.34101698	          0.03902177	          1.06087544	          2.20456424	         -0.83663511	         -0.14723738	         -2.29343713	         -0.41184512	          0.04045201	          1.25110122	         -0.47907288	         -0.02767942	          0.01838642	
          0.90549057	          0.00000009	         -0.00000193	         -0.00000026	          0.00000094	          0.00001689	          0.00000305	         -3.96055551	        -35.62924875	         -3.92416274	          5.88667499	         -8.05634919	          1.41667850	          9.94889642	          2.14729570	        -34.22051347	          1.29953582	          6.71282554	         -0.51898860	          6.19575997	         -0.22446405	          0.67314709	          1.83335384	          1.04208130	          0.72672514	         -1.07931453	         -0.17780828	         -1.65770280	         -0.78093475	         -0.01210986	          0.70450167	         -0.29342647	         -0.02299897	          0.01097674	
          0.92564151	         -0.00000056	         -0.00000161	         -0.00000022	          0.00000104	          0.00002115	          0.00000289	          0.41822441	        -35.12460233	         -4.85683352	          1.51895639	         -4.32886447	          0.67460587	          9.58668046	          6.30246003	        -39.36687830	          0.89402598	          7.57712867	         -0.35119923	          6.79914027	         -0.04172767	          1.69673096	          4.59644552	          0.55292559	         -0.57044069	         -1.16625293	         -0.16042639	         -0.64234177	         -1.27584558	         -0.07641113	          0.21988758	          0.06400545	         -0.01720002	         -0.00198193	
          0.94579245	         -0.00000088	         -0.00000149	         -0.00000021	          0.00000173	          0.00002645	          0.00000303	          8.17561912	        -34.21956124	         -5.70511840	         -3.92209945	          0.65208172	         -0.15346928	          7.92786016	          9.61296703	        -45.91158446	          0.82867910	          8.70177641	         -0.28701187	          7.49464554	         -0.03763195	          1.37596010	          7.38295431	         -0.10858195	         -1.37947634	         -1.01857741	         -0.08671430	          0.64255417	         -1.78997929	         -0.13719750	         -0.08075807	          0.55440752	         -0.01149372	         -0.01845688	
          0.96594340	         -0.00000166	         -0.00000146	         -0.00000015	          0.00000192	          0.00003009	          0.00000313	         20.68525256	        -33.00932513	         -6.05779213	        -12.34933912	          5.82974209	         -0.73060783	          3.98662480	         13.53313468	        -52.26265112	          0.66905966	          9.72836316	         -0.19849062	          8.17030735	         -0.02917903	         -0.19022450	          9.62244373	         -0.32180956	         -1.68702639	         -0.73965248	          0.01244872	          2.04592664	         -2.25200079	         -0.18625173	         -0.20165525	          1.09719894	         -0.00685778	         -0.03577513	
          0.98609434	         -0.00000252	         -0.00000120	         -0.00000003	          0.00000171	          0.00003068	          0.00000292	         34.09397963	        -31.44959852	         -5.56181213	        -21.13641363	          9.75930877	         -0.91355239	         -0.49976424	         16.91007586	        -57.31675776	          0.50045605	         10.52813953	         -0.11518182	          8.83791042	         -0.01712907	         -2.48390668	         10.98373351	          0.31594750	         -1.64416620	         -0.51715415	          0.08985575	          3.31390585	         -2.61931139	         -0.22117735	         -0.21777438	          1.56956902	         -0.00352618	         -0.05079523	
          1.00624528	         -0.00000243	         -0.00000138	          0.00000006	          0.00000252	          0.00003176	          0.00000313	         41.94019636	        -31.10507374	         -4.46012669	        -24.94267511	         10.54638429	         -0.63181491	         -2.30496023	         16.92670471	        -61.38871740	          0.84115880	         10.92990730	         -0.12044561	          9.64689626	         -0.00385491	         -4.89957441	         11.33571275	          1.74772801	         -1.38204012	         -0.49563559	          0.10791886	          4.14589578	         -2.85790371	         -0.24068352	         -0.18278196	          1.85233602	         -0.00174998	         -0.06051152	
          1.02639623	         -0.00000317	         -0.00000016	          0.00000017	          0.00000251	          0.00003167	          0.00000182	         44.08052059	        -32.36452848	         -3.23233061	        -24.00645571	          8.56490057	         -0.15911994	         -1.59536276	         14.55407420	        -65.24300794	          1.45793179	         10.87164678	         -0.18777236	         10.76536344	          0.00673042	         -7.05693927	         11.14496558	          3.69416526	         -0.96307022	         -0.71879282	          0.04914297	          4.41671759	         -2.94184122	         -0.24243651	         -0.10731756	          1.90524537	         -0.00232621	         -0.06333400	
